# xmcd CD database file generated by OrangeCD 6.2
#
# Track frame offsets:
#	150
#	20788
#	50836
#	66455
#	89378
#
# Disc length: 1619 seconds
#
# Revision: 0
# Processed by: cddbd v1.5.2PL0 Copyright (c) Steve Scherf et al.
# Submitted via: OrangeCD 6.2
#
DISCID=48065105
DTITLE=Ryan Weidner - Bolus of Fire
DYEAR=2004
DGENRE=
TTITLE0=Nurse Hotscrubs
TTITLE1=Buzz if you need me
TTITLE2=The Devil
TTITLE3=An ego on the floor is not sterile
TTITLE4=Final words
EXTD=
EXTT0=
EXTT1=
EXTT2=
EXTT3=
EXTT4=
PLAYORDER=
